<svg id="Warstwa_1" data-name="Warstwa 1" xmlns="http://www.w3.org/2000/svg" viewBox="0 0 509.7 369.74"><defs><style>.cls-1{fill:#0a1f28;}.cls-2{fill:#00a4ff;}.cls-3{fill:#021428;}</style></defs><polygon class="cls-1" points="273.82 155.63 272.8 154.63 272.81 154.63 273.82 155.63"/><path class="cls-2" d="M147.92,233.36a20.42,20.42,0,0,1-1,6.28,20.66,20.66,0,0,1-2.7,5.52,21.41,21.41,0,0,1-9.41,7.61,22,22,0,0,1-8.34,1.66H69.38V240.38h57.13a6.86,6.86,0,0,0,4-1.18,7,7,0,0,0,2.59-3.1,6.91,6.91,0,0,0,.56-2.74,6.74,6.74,0,0,0-1.23-3.9,6.87,6.87,0,0,0-3.13-2.55,7.29,7.29,0,0,0-2.78-.55h-50v-14h42.87a7.27,7.27,0,0,0,2.11-.31,8.38,8.38,0,0,0,1.87-.87,7,7,0,0,0,3.15-5.83,6.88,6.88,0,0,0-.31-2.1,6.75,6.75,0,0,0-.91-1.82,7,7,0,0,0-3.16-2.54,6.72,6.72,0,0,0-2.75-.55H62.24v56.12H48V184.25h71.41a22.08,22.08,0,0,1,12,3.6,21.3,21.3,0,0,1,7.75,9.28,20.75,20.75,0,0,1,.73,14.44,23.83,23.83,0,0,1-1.79,4.07l.44.29a20.87,20.87,0,0,1,7.75,9.25,20.43,20.43,0,0,1,1.69,8.18"/><path class="cls-2" d="M251.44,240.42v14H197.91a36.36,36.36,0,0,1-10.61-1.57A35.82,35.82,0,0,1,165,233a34.17,34.17,0,0,1-2.81-13.64V184.24h14.28v35.11a20.61,20.61,0,0,0,1,6.23,21.51,21.51,0,0,0,2.69,5.51,21.23,21.23,0,0,0,9.44,7.62,20.94,20.94,0,0,0,8.34,1.66h39.26a3.21,3.21,0,0,1,.69,0Z"/><path class="cls-2" d="M347.51,184.24v35.11a34.58,34.58,0,0,1-1.6,10.4,34.18,34.18,0,0,1-4.49,9.2,35.53,35.53,0,0,1-15.69,12.73,36.9,36.9,0,0,1-13.89,2.73H294a35.91,35.91,0,0,1-10.6-1.57A35.8,35.8,0,0,1,261.09,233a34.12,34.12,0,0,1-2.81-13.63V184.24h14.27v35.11a21,21,0,0,0,1,6.23,22.11,22.11,0,0,0,2.7,5.52,21.5,21.5,0,0,0,9.44,7.61,20.89,20.89,0,0,0,8.33,1.66h17.86a21.69,21.69,0,0,0,12-3.58,21.19,21.19,0,0,0,7.75-9.27,20.49,20.49,0,0,0,1.69-8.17V184.24Z"/><path class="cls-2" d="M377.79,211.15c-.17.39-.3.79-.46,1.17h70.08v14H377.33a21.49,21.49,0,0,0,20.2,14h42.84c.25,0,.46,0,.69,0h20.67v14h-64.2a36.11,36.11,0,0,1-10.6-1.57,37.09,37.09,0,0,1-9.36-4.43A35.44,35.44,0,0,1,364.64,233a34.51,34.51,0,0,1-1.21-24.08,34,34,0,0,1,4.52-9.2A35.7,35.7,0,0,1,383.63,187a36.54,36.54,0,0,1,13.9-2.76h64.2v14H441.06c-.23,0-.44,0-.69,0H397.53a21.2,21.2,0,0,0-12,3.58,21.37,21.37,0,0,0-7.77,9.27"/><path class="cls-3" d="M130.56,132.34a135,135,0,0,1,248.59,0c-22.32-41-69.58-69.27-124.33-69.27S152.88,91.37,130.56,132.34Z"/><path class="cls-3" d="M357.39,272.44a134.73,134.73,0,0,1-205.07,0c25.06,22.76,61.72,37.1,102.5,37.1S332.26,295.2,357.39,272.44Z"/><path class="cls-3" d="M220.12,151a12,12,0,0,1-.57,3.7,12.45,12.45,0,0,1-7.14,7.74,12.59,12.59,0,0,1-4.91,1H163.23V155.1H207.5a5.1,5.1,0,0,0,1.25-.18,5,5,0,0,0,1.09-.53,4,4,0,0,0,1.53-1.84,3.64,3.64,0,0,0,.33-1.6,3.86,3.86,0,0,0-.19-1.23,4.08,4.08,0,0,0-.52-1.07,4.23,4.23,0,0,0-1.86-1.51,4.05,4.05,0,0,0-1.63-.32H173.8a13.28,13.28,0,0,1-3.75-.55,12.77,12.77,0,0,1-7.89-7,12.64,12.64,0,0,1-1-4.84,11.79,11.79,0,0,1,.57-3.67A12.68,12.68,0,0,1,173.8,122h44.37v8.28H173.8a4,4,0,0,0-1.25.19,3.88,3.88,0,0,0-1.09.51,4.28,4.28,0,0,0-1.54,1.83,4,4,0,0,0-.32,1.6,4,4,0,0,0,.19,1.23,4.21,4.21,0,0,0,.52,1.09,4.3,4.3,0,0,0,1.87,1.5,4.15,4.15,0,0,0,1.62.33h33.7a12.23,12.23,0,0,1,3.74.56,12.92,12.92,0,0,1,3.32,1.55,12.66,12.66,0,0,1,4.58,5.47,12.46,12.46,0,0,1,1,4.82"/><path class="cls-3" d="M348.52,122l-16.73,16.43-.89.91L325,145.18a5.54,5.54,0,0,0-1.23,1.81,5.47,5.47,0,0,0-.41,2.08v14.37H315V149.07a5.47,5.47,0,0,0-.41-2.08,5.74,5.74,0,0,0-1.24-1.81l-5.85-5.85-.9-.91L289.87,122H302l17.16,16.86L336.35,122Z"/><path class="cls-3" d="M286,163.38H274l-6.83-6.72-1-1h0L258.42,148a4.48,4.48,0,0,0-1.36-.88,4.06,4.06,0,0,0-1.63-.33H235v16.57H226.6V122H235v16.54h20.4a4.13,4.13,0,0,0,3-1.22l7.67-7.51L274,122H285.9l-10.63,10.46a1.88,1.88,0,0,1-.19.2l-10.2,10,7.25,7.12Z"/></svg>